<svg width="20" height="20" viewBox="0 0 20 20" fill="none" xmlns="http://www.w3.org/2000/svg">
<path d="M6.2775 14.5575C6.0875 14.5575 5.8975 14.4875 5.7475 14.3375L2.2175 10.8075C1.9275 10.5175 1.9275 10.0375 2.2175 9.7475L5.7475 6.2175C6.0375 5.9275 6.5175 5.9275 6.8075 6.2175C7.0975 6.5075 7.0975 6.9875 6.8075 7.2775L3.8075 10.2775L6.8075 13.2775C7.0975 13.5675 7.0975 14.0475 6.8075 14.3375C6.6675 14.4875 6.4775 14.5575 6.2775 14.5575Z" fill="#A0A5AB"/>
<path opacity="0.4" d="M11.2775 14.5575C11.0875 14.5575 10.8975 14.4875 10.7475 14.3375L7.2175 10.8075C6.9275 10.5175 6.9275 10.0375 7.2175 9.7475L10.7475 6.2175C11.0375 5.9275 11.5175 5.9275 11.8075 6.2175C12.0975 6.5075 12.0975 6.9875 11.8075 7.2775L8.8075 10.2775L11.8075 13.2775C12.0975 13.5675 12.0975 14.0475 11.8075 14.3375C11.6675 14.4875 11.4775 14.5575 11.2775 14.5575Z" fill="#A0A5AB"/>
<path opacity="0.4" d="M16.2775 14.5575C16.0875 14.5575 15.8975 14.4875 15.7475 14.3375L12.2175 10.8075C11.9275 10.5175 11.9275 10.0375 12.2175 9.7475L15.7475 6.2175C16.0375 5.9275 16.5175 5.9275 16.8075 6.2175C17.0975 6.5075 17.0975 6.9875 16.8075 7.2775L13.8075 10.2775L16.8075 13.2775C17.0975 13.5675 17.0975 14.0475 16.8075 14.3375C16.6675 14.4875 16.4775 14.5575 16.2775 14.5575Z" fill="#A0A5AB"/>
</svg>
